# This file uses centimeters as units for non-parametric coordinates.

mtllib Fire.mtl
v 0.149299 -0.004352 -0.018853
v 0.145707 -0.004352 -0.037428
v 0.139907 -0.004352 -0.055383
v 0.131897 -0.004352 -0.072509
v 0.121815 -0.004352 -0.088461
v 0.109661 -0.004352 -0.102962
v 0.095850 -0.004352 -0.115945
v 0.080657 -0.004352 -0.126994
v 0.064084 -0.004352 -0.136109
v 0.046475 -0.004352 -0.143153
v 0.028209 -0.004352 -0.147849
v 0.009443 -0.004352 -0.150197
v -0.009444 -0.004352 -0.150197
v -0.028210 -0.004352 -0.147849
v -0.046475 -0.004352 -0.143153
v -0.064084 -0.004352 -0.136109
v -0.080658 -0.004352 -0.126994
v -0.095851 -0.004352 -0.115945
v -0.109662 -0.004352 -0.102962
v -0.121676 -0.004352 -0.088461
v -0.131898 -0.004352 -0.072509
v -0.139907 -0.004352 -0.055383
v -0.145708 -0.004352 -0.037428
v -0.149298 -0.004352 -0.018853
v -0.150542 -0.004352 -0.000000
v -0.149299 -0.004352 0.018852
v -0.145708 -0.004352 0.037428
v -0.139907 -0.004352 0.055383
v -0.131896 -0.004352 0.072509
v -0.121676 -0.004352 0.088460
v -0.109662 -0.004352 0.102962
v -0.095851 -0.004352 0.115944
v -0.080658 -0.004352 0.126994
v -0.064084 -0.004352 0.136108
v -0.046475 -0.004352 0.143152
v -0.028210 -0.004352 0.147848
v -0.009444 -0.004352 0.150196
v 0.009443 -0.004352 0.150196
v 0.028209 -0.004352 0.147848
v 0.046475 -0.004352 0.143152
v 0.064084 -0.004352 0.136108
v 0.080657 -0.004352 0.126994
v 0.095850 -0.004352 0.115944
v 0.109661 -0.004352 0.102962
v 0.121675 -0.004352 0.088460
v 0.131896 -0.004352 0.072509
v 0.139907 -0.004352 0.055383
v 0.145707 -0.004352 0.037428
v 0.149297 -0.004352 0.018852
v 0.150541 -0.004352 -0.000000
v 0.992116 1.106862 -0.125333
v 0.968584 1.106862 -0.248690
v 0.929777 1.106862 -0.368125
v 0.876307 1.106862 -0.481754
v 0.809018 1.106862 -0.587786
v 0.728969 1.106862 -0.684548
v 0.637425 1.106862 -0.770514
v 0.535827 1.106862 -0.844329
v 0.425780 1.106862 -0.904828
v 0.309017 1.106862 -0.951057
v 0.187381 1.106862 -0.982288
v 0.062790 1.106862 -0.998028
v -0.062791 1.106862 -0.998028
v -0.187382 1.106862 -0.982288
v -0.309017 1.106862 -0.951057
v -0.425780 1.106862 -0.904828
v -0.535827 1.106862 -0.844328
v -0.637424 1.106862 -0.770514
v -0.728969 1.106862 -0.684547
v -0.809018 1.106862 -0.587786
v -0.876307 1.106862 -0.481754
v -0.929777 1.106862 -0.368125
v -0.968584 1.106862 -0.248690
v -0.992115 1.106862 -0.125333
v -1.000001 1.106862 0.000000
v -0.992115 1.106862 0.125333
v -0.968584 1.106862 0.248690
v -0.929777 1.106862 0.368125
v -0.876307 1.106862 0.481754
v -0.809017 1.106862 0.587786
v -0.728969 1.106862 0.684547
v -0.637424 1.106862 0.770514
v -0.535827 1.106862 0.844328
v -0.425779 1.106862 0.904827
v -0.309017 1.106862 0.951057
v -0.187381 1.106862 0.982288
v -0.062790 1.106862 0.998027
v 0.062791 1.106862 0.998027
v 0.187381 1.106862 0.982287
v 0.309017 1.106862 0.951057
v 0.425779 1.106862 0.904827
v 0.535827 1.106862 0.844328
v 0.637424 1.106862 0.770513
v 0.728969 1.106862 0.684547
v 0.809017 1.106862 0.587785
v 0.876307 1.106862 0.481754
v 0.929776 1.106862 0.368125
v 0.968583 1.106862 0.248690
v 0.992115 1.106862 0.125333
v 1.000000 1.106862 0.000000
v -0.000000 -0.004352 -0.000000
v 0.000000 0.080414 0.000000
vt 0.464182 0.729249
vt 0.458782 0.700941
vt 0.449876 0.673534
vt 0.437606 0.647458
vt 0.422165 0.623127
vt 0.403796 0.600922
vt 0.382788 0.581195
vt 0.359474 0.564256
vt 0.334220 0.550373
vt 0.307426 0.539764
vt 0.279514 0.532597
vt 0.250923 0.528986
vt 0.222105 0.528986
vt 0.193514 0.532597
vt 0.165601 0.539764
vt 0.138807 0.550373
vt 0.113554 0.564256
vt 0.090239 0.581195
vt 0.069232 0.600922
vt 0.050863 0.623127
vt 0.035421 0.647459
vt 0.023151 0.673534
vt 0.014246 0.700942
vt 0.008846 0.729249
vt 0.007036 0.758010
vt 0.008846 0.786771
vt 0.014246 0.815079
vt 0.023151 0.842487
vt 0.035421 0.868562
vt 0.050863 0.892894
vt 0.069232 0.915098
vt 0.090239 0.934826
vt 0.113554 0.951764
vt 0.138807 0.965648
vt 0.165601 0.976256
vt 0.193514 0.983423
vt 0.222105 0.987034
vt 0.250923 0.987034
vt 0.279514 0.983423
vt 0.307426 0.976256
vt 0.334221 0.965647
vt 0.359474 0.951764
vt 0.382788 0.934825
vt 0.403796 0.915098
vt 0.422165 0.892893
vt 0.437606 0.868562
vt 0.449876 0.842487
vt 0.458782 0.815079
vt 0.464182 0.786771
vt 0.465991 0.758010
vt 0.014061 0.011025
vt 0.033444 0.011025
vt 0.052826 0.011025
vt 0.072209 0.011025
vt 0.091592 0.011025
vt 0.110975 0.011025
vt 0.130357 0.011025
vt 0.149740 0.011025
vt 0.169123 0.011025
vt 0.188506 0.011025
vt 0.207888 0.011025
vt 0.227271 0.011025
vt 0.246654 0.011025
vt 0.266037 0.011025
vt 0.285419 0.011025
vt 0.304802 0.011025
vt 0.324185 0.011025
vt 0.343568 0.011025
vt 0.362950 0.011025
vt 0.382333 0.011025
vt 0.401716 0.011025
vt 0.421099 0.011025
vt 0.440481 0.011025
vt 0.459864 0.011025
vt 0.479247 0.011025
vt 0.498630 0.011025
vt 0.518012 0.011025
vt 0.537395 0.011025
vt 0.556778 0.011025
vt 0.576161 0.011025
vt 0.595543 0.011025
vt 0.614926 0.011025
vt 0.634309 0.011025
vt 0.653692 0.011025
vt 0.673074 0.011025
vt 0.692457 0.011025
vt 0.711840 0.011025
vt 0.731223 0.011025
vt 0.750605 0.011025
vt 0.769988 0.011025
vt 0.789371 0.011025
vt 0.808753 0.011025
vt 0.828136 0.011025
vt 0.847519 0.011025
vt 0.866902 0.011025
vt 0.886284 0.011025
vt 0.905667 0.011025
vt 0.925050 0.011025
vt 0.944433 0.011025
vt 0.963815 0.011025
vt 0.983198 0.011025
vt 0.014061 0.418400
vt 0.033444 0.418400
vt 0.052826 0.418400
vt 0.072209 0.418400
vt 0.091592 0.418400
vt 0.110975 0.418400
vt 0.130357 0.418400
vt 0.149740 0.418400
vt 0.169123 0.418400
vt 0.188506 0.418400
vt 0.207888 0.418400
vt 0.227271 0.418400
vt 0.246654 0.418400
vt 0.266037 0.418400
vt 0.285419 0.418400
vt 0.304802 0.418400
vt 0.324185 0.418400
vt 0.343568 0.418400
vt 0.362950 0.418400
vt 0.382333 0.418400
vt 0.401716 0.418400
vt 0.421099 0.418400
vt 0.440481 0.418400
vt 0.459864 0.418400
vt 0.479247 0.418400
vt 0.498630 0.418400
vt 0.518012 0.418400
vt 0.537395 0.418400
vt 0.556778 0.418400
vt 0.576161 0.418400
vt 0.595543 0.418400
vt 0.614926 0.418400
vt 0.634309 0.418400
vt 0.653692 0.418400
vt 0.673074 0.418400
vt 0.692457 0.418400
vt 0.711840 0.418400
vt 0.731223 0.418400
vt 0.750605 0.418400
vt 0.769988 0.418400
vt 0.789371 0.418400
vt 0.808753 0.418400
vt 0.828136 0.418400
vt 0.847519 0.418400
vt 0.866902 0.418400
vt 0.886284 0.418400
vt 0.905667 0.418400
vt 0.925050 0.418400
vt 0.944433 0.418400
vt 0.963815 0.418400
vt 0.983198 0.418400
vt 0.992256 0.718959
vt 0.986481 0.688686
vt 0.976957 0.659377
vt 0.963835 0.631492
vt 0.947322 0.605471
vt 0.927678 0.581725
vt 0.905213 0.560629
vt 0.880280 0.542514
vt 0.853274 0.527667
vt 0.824620 0.516322
vt 0.794770 0.508658
vt 0.764195 0.504796
vt 0.733376 0.504796
vt 0.702801 0.508658
vt 0.672951 0.516322
vt 0.644297 0.527668
vt 0.617291 0.542514
vt 0.592358 0.560629
vt 0.569893 0.581725
vt 0.550249 0.605471
vt 0.533736 0.631492
vt 0.520614 0.659377
vt 0.511091 0.688687
vt 0.505316 0.718959
vt 0.503381 0.749717
vt 0.505316 0.780474
vt 0.511091 0.810746
vt 0.520614 0.840056
vt 0.533736 0.867941
vt 0.550249 0.893962
vt 0.569893 0.917708
vt 0.592359 0.938804
vt 0.617291 0.956919
vt 0.644297 0.971765
vt 0.672951 0.983110
vt 0.702801 0.990775
vt 0.733377 0.994637
vt 0.764195 0.994637
vt 0.794770 0.990775
vt 0.824620 0.983110
vt 0.853274 0.971765
vt 0.880280 0.956919
vt 0.905213 0.938804
vt 0.927678 0.917708
vt 0.947322 0.893962
vt 0.963835 0.867941
vt 0.976957 0.840056
vt 0.986481 0.810746
vt 0.992255 0.780474
vt 0.994190 0.749717
vt 0.236514 0.748831
vt 0.748786 0.739900
vn 0.788136 -0.607342 -0.099887
vn 0.769466 -0.607349 -0.197606
vn 0.769468 -0.607349 -0.197601
vn 0.788140 -0.607342 -0.099854
vn 0.738732 -0.607348 -0.292239
vn 0.738723 -0.607348 -0.292262
vn 0.696300 -0.607332 -0.382510
vn 0.696287 -0.607332 -0.382533
vn 0.642553 -0.607346 -0.467179
vn 0.642569 -0.607346 -0.467157
vn 0.578882 -0.607346 -0.544083
vn 0.578906 -0.607346 -0.544057
vn 0.506449 -0.607366 -0.612059
vn 0.506445 -0.607366 -0.612062
vn 0.425687 -0.607364 -0.670746
vn 0.425682 -0.607364 -0.670749
vn 0.338440 -0.607351 -0.718737
vn 0.338419 -0.607351 -0.718747
vn 0.245724 -0.607345 -0.755481
vn 0.245703 -0.607345 -0.755488
vn 0.148804 -0.607335 -0.780385
vn 0.148810 -0.607335 -0.780384
vn 0.049818 -0.607335 -0.792882
vn 0.049826 -0.607335 -0.792882
vn -0.049819 -0.607335 -0.792882
vn -0.049826 -0.607335 -0.792882
vn -0.148805 -0.607335 -0.780385
vn -0.148810 -0.607335 -0.780384
vn -0.245724 -0.607345 -0.755481
vn -0.245703 -0.607345 -0.755488
vn -0.338441 -0.607351 -0.718737
vn -0.338419 -0.607351 -0.718747
vn -0.425687 -0.607363 -0.670746
vn -0.425682 -0.607363 -0.670749
vn -0.506449 -0.607366 -0.612059
vn -0.506445 -0.607366 -0.612061
vn -0.579086 -0.607367 -0.543843
vn -0.579087 -0.607367 -0.543842
vn -0.642547 -0.607353 -0.467180
vn -0.642566 -0.607353 -0.467153
vn -0.696104 -0.607355 -0.382830
vn -0.696110 -0.607355 -0.382819
vn -0.738732 -0.607347 -0.292239
vn -0.738723 -0.607347 -0.292262
vn -0.769468 -0.607349 -0.197601
vn -0.769469 -0.607349 -0.197596
vn -0.788136 -0.607342 -0.099889
vn -0.788140 -0.607342 -0.099857
vn -0.794442 -0.607340 -0.000004
vn -0.794442 -0.607340 -0.000004
vn -0.788136 -0.607342 0.099890
vn -0.788140 -0.607342 0.099857
vn -0.769467 -0.607349 0.197606
vn -0.769468 -0.607349 0.197600
vn -0.738730 -0.607348 0.292243
vn -0.738721 -0.607348 0.292266
vn -0.696104 -0.607355 0.382831
vn -0.696110 -0.607355 0.382820
vn -0.642548 -0.607353 0.467177
vn -0.642567 -0.607353 0.467151
vn -0.579086 -0.607367 0.543843
vn -0.579086 -0.607367 0.543842
vn -0.506449 -0.607366 0.612059
vn -0.506445 -0.607366 0.612062
vn -0.425687 -0.607363 0.670746
vn -0.425682 -0.607363 0.670749
vn -0.338440 -0.607351 0.718737
vn -0.338419 -0.607351 0.718747
vn -0.245724 -0.607345 0.755481
vn -0.245703 -0.607345 0.755488
vn -0.148805 -0.607335 0.780385
vn -0.148810 -0.607335 0.780384
vn -0.049818 -0.607335 0.792882
vn -0.049826 -0.607335 0.792882
vn 0.049819 -0.607335 0.792882
vn 0.049826 -0.607335 0.792882
vn 0.148805 -0.607335 0.780385
vn 0.148810 -0.607335 0.780384
vn 0.245725 -0.607345 0.755481
vn 0.245704 -0.607345 0.755488
vn 0.338440 -0.607351 0.718737
vn 0.338419 -0.607351 0.718747
vn 0.425687 -0.607363 0.670746
vn 0.425682 -0.607363 0.670749
vn 0.506449 -0.607366 0.612059
vn 0.506445 -0.607366 0.612062
vn 0.579086 -0.607367 0.543843
vn 0.579086 -0.607367 0.543842
vn 0.642548 -0.607353 0.467176
vn 0.642567 -0.607353 0.467151
vn 0.696104 -0.607355 0.382830
vn 0.696110 -0.607355 0.382819
vn 0.738731 -0.607348 0.292243
vn 0.738722 -0.607348 0.292266
vn 0.769468 -0.607349 0.197601
vn 0.769469 -0.607349 0.197596
vn 0.788136 -0.607342 0.099890
vn 0.788140 -0.607342 0.099857
vn 0.794442 -0.607340 0.000007
vn 0.794442 -0.607340 0.000007
vn 0.000000 -1.000000 0.000000
vn 0.000000 -1.000000 0.000000
vn 0.000000 -1.000000 0.000000
vn 0.000000 -1.000000 0.000000
vn 0.000000 -1.000000 0.000000
vn 0.000000 -1.000000 0.000000
vn 0.000000 -1.000000 0.000000
vn 0.000000 -1.000000 0.000000
vn 0.000000 -1.000000 0.000000
vn 0.000000 -1.000000 0.000000
vn 0.000000 -1.000000 0.000000
vn 0.000000 -1.000000 0.000000
vn 0.000000 -1.000000 0.000000
vn 0.000000 -1.000000 0.000000
vn 0.000000 -1.000000 0.000000
vn 0.000000 -1.000000 0.000000
vn 0.000000 -1.000000 0.000000
vn 0.000000 -1.000000 0.000000
vn 0.000000 -1.000000 0.000000
vn 0.000000 -1.000000 0.000000
vn 0.000000 -1.000000 0.000000
vn 0.000000 -1.000000 0.000000
vn 0.000000 -1.000000 0.000000
vn 0.000000 -1.000000 0.000000
vn 0.000000 -1.000000 0.000000
vn 0.000000 -1.000000 0.000000
vn 0.000000 -1.000000 0.000000
vn 0.000000 -1.000000 0.000000
vn 0.000000 -1.000000 0.000000
vn 0.000000 -1.000000 0.000000
vn 0.000000 -1.000000 0.000000
vn 0.000000 -1.000000 0.000000
vn 0.000000 -1.000000 0.000000
vn 0.000000 -1.000000 0.000000
vn 0.000000 -1.000000 0.000000
vn 0.000000 -1.000000 0.000000
vn 0.000000 -1.000000 0.000000
vn 0.000000 -1.000000 0.000000
vn 0.000000 -1.000000 0.000000
vn 0.000000 -1.000000 0.000000
vn 0.000000 -1.000000 0.000000
vn 0.000000 -1.000000 0.000000
vn 0.000000 -1.000000 0.000000
vn 0.000000 -1.000000 0.000000
vn 0.000000 -1.000000 0.000000
vn 0.000000 -1.000000 0.000000
vn 0.000000 -1.000000 0.000000
vn 0.000000 -1.000000 0.000000
vn 0.000000 -1.000000 0.000000
vn 0.000000 -1.000000 0.000000
vn 0.000000 -1.000000 0.000000
vn -0.710627 0.697819 0.089770
vn -0.693771 0.697819 0.178130
vn -0.000003 1.000000 0.000000
vn -0.665975 0.697819 0.263678
vn -0.627676 0.697819 0.345068
vn -0.579478 0.697819 0.421016
vn -0.522142 0.697819 0.490324
vn -0.456571 0.697819 0.551899
vn -0.383799 0.697819 0.604771
vn -0.304975 0.697819 0.648105
vn -0.221341 0.697819 0.681217
vn -0.134216 0.697819 0.703587
vn -0.044975 0.697819 0.714861
vn 0.044975 0.697819 0.714861
vn 0.134217 0.697819 0.703587
vn 0.221341 0.697819 0.681217
vn 0.304975 0.697819 0.648104
vn 0.383799 0.697819 0.604771
vn 0.456571 0.697819 0.551899
vn 0.522142 0.697819 0.490324
vn 0.579478 0.697819 0.421015
vn 0.627676 0.697819 0.345068
vn 0.665975 0.697819 0.263678
vn 0.693771 0.697819 0.178130
vn 0.710626 0.697819 0.089773
vn 0.716274 0.697819 -0.000000
vn 0.710626 0.697819 -0.089773
vn 0.693771 0.697819 -0.178130
vn 0.665975 0.697819 -0.263678
vn 0.627676 0.697819 -0.345068
vn 0.579478 0.697819 -0.421016
vn 0.522142 0.697819 -0.490324
vn 0.456570 0.697819 -0.551899
vn 0.383799 0.697819 -0.604771
vn 0.304975 0.697819 -0.648105
vn 0.221341 0.697819 -0.681218
vn 0.134216 0.697818 -0.703587
vn 0.044975 0.697819 -0.714861
vn -0.044975 0.697819 -0.714861
vn -0.134217 0.697819 -0.703587
vn -0.221341 0.697818 -0.681217
vn -0.304975 0.697818 -0.648105
vn -0.383799 0.697818 -0.604771
vn -0.456571 0.697818 -0.551899
vn -0.522142 0.697819 -0.490324
vn -0.579478 0.697819 -0.421015
vn -0.627676 0.697818 -0.345068
vn -0.665975 0.697818 -0.263678
vn -0.693772 0.697819 -0.178130
vn -0.710627 0.697818 -0.089773
vn -0.716275 0.697818 -0.000003
s 1
g pCylinder1
usemtl initialShadingGroup
f 1/51/1 2/52/2 52/103/3 51/102/4
f 2/52/2 3/53/5 53/104/6 52/103/3
f 3/53/5 4/54/7 54/105/8 53/104/6
f 4/54/7 5/55/9 55/106/10 54/105/8
f 5/55/9 6/56/11 56/107/12 55/106/10
f 6/56/11 7/57/13 57/108/14 56/107/12
f 7/57/13 8/58/15 58/109/16 57/108/14
f 8/58/15 9/59/17 59/110/18 58/109/16
f 9/59/17 10/60/19 60/111/20 59/110/18
f 10/60/19 11/61/21 61/112/22 60/111/20
f 11/61/21 12/62/23 62/113/24 61/112/22
f 12/62/23 13/63/25 63/114/26 62/113/24
f 13/63/25 14/64/27 64/115/28 63/114/26
f 14/64/27 15/65/29 65/116/30 64/115/28
f 15/65/29 16/66/31 66/117/32 65/116/30
f 16/66/31 17/67/33 67/118/34 66/117/32
f 17/67/33 18/68/35 68/119/36 67/118/34
f 18/68/35 19/69/37 69/120/38 68/119/36
f 19/69/37 20/70/39 70/121/40 69/120/38
f 20/70/39 21/71/41 71/122/42 70/121/40
f 21/71/41 22/72/43 72/123/44 71/122/42
f 22/72/43 23/73/45 73/124/46 72/123/44
f 23/73/45 24/74/47 74/125/48 73/124/46
f 24/74/47 25/75/49 75/126/50 74/125/48
f 25/75/49 26/76/51 76/127/52 75/126/50
f 26/76/51 27/77/53 77/128/54 76/127/52
f 27/77/53 28/78/55 78/129/56 77/128/54
f 28/78/55 29/79/57 79/130/58 78/129/56
f 29/79/57 30/80/59 80/131/60 79/130/58
f 30/80/59 31/81/61 81/132/62 80/131/60
f 31/81/61 32/82/63 82/133/64 81/132/62
f 32/82/63 33/83/65 83/134/66 82/133/64
f 33/83/65 34/84/67 84/135/68 83/134/66
f 34/84/67 35/85/69 85/136/70 84/135/68
f 35/85/69 36/86/71 86/137/72 85/136/70
f 36/86/71 37/87/73 87/138/74 86/137/72
f 37/87/73 38/88/75 88/139/76 87/138/74
f 38/88/75 39/89/77 89/140/78 88/139/76
f 39/89/77 40/90/79 90/141/80 89/140/78
f 40/90/79 41/91/81 91/142/82 90/141/80
f 41/91/81 42/92/83 92/143/84 91/142/82
f 42/92/83 43/93/85 93/144/86 92/143/84
f 43/93/85 44/94/87 94/145/88 93/144/86
f 44/94/87 45/95/89 95/146/90 94/145/88
f 45/95/89 46/96/91 96/147/92 95/146/90
f 46/96/91 47/97/93 97/148/94 96/147/92
f 47/97/93 48/98/95 98/149/96 97/148/94
f 48/98/95 49/99/97 99/150/98 98/149/96
f 49/99/97 50/100/99 100/151/100 99/150/98
f 50/100/99 1/101/1 51/152/4 100/151/100
s 2
f 2/2/101 1/1/102 101/203/103
f 3/3/104 2/2/101 101/203/103
f 4/4/105 3/3/104 101/203/103
f 5/5/106 4/4/105 101/203/103
f 6/6/107 5/5/106 101/203/103
f 7/7/108 6/6/107 101/203/103
f 8/8/109 7/7/108 101/203/103
f 9/9/110 8/8/109 101/203/103
f 10/10/111 9/9/110 101/203/103
f 11/11/112 10/10/111 101/203/103
f 12/12/113 11/11/112 101/203/103
f 13/13/114 12/12/113 101/203/103
f 14/14/115 13/13/114 101/203/103
f 15/15/116 14/14/115 101/203/103
f 16/16/117 15/15/116 101/203/103
f 17/17/118 16/16/117 101/203/103
f 18/18/119 17/17/118 101/203/103
f 19/19/120 18/18/119 101/203/103
f 20/20/121 19/19/120 101/203/103
f 21/21/122 20/20/121 101/203/103
f 22/22/123 21/21/122 101/203/103
f 23/23/124 22/22/123 101/203/103
f 24/24/125 23/23/124 101/203/103
f 25/25/126 24/24/125 101/203/103
f 26/26/127 25/25/126 101/203/103
f 27/27/128 26/26/127 101/203/103
f 28/28/129 27/27/128 101/203/103
f 29/29/130 28/28/129 101/203/103
f 30/30/131 29/29/130 101/203/103
f 31/31/132 30/30/131 101/203/103
f 32/32/133 31/31/132 101/203/103
f 33/33/134 32/32/133 101/203/103
f 34/34/135 33/33/134 101/203/103
f 35/35/136 34/34/135 101/203/103
f 36/36/137 35/35/136 101/203/103
f 37/37/138 36/36/137 101/203/103
f 38/38/139 37/37/138 101/203/103
f 39/39/140 38/38/139 101/203/103
f 40/40/141 39/39/140 101/203/103
f 41/41/142 40/40/141 101/203/103
f 42/42/143 41/41/142 101/203/103
f 43/43/144 42/42/143 101/203/103
f 44/44/145 43/43/144 101/203/103
f 45/45/146 44/44/145 101/203/103
f 46/46/147 45/45/146 101/203/103
f 47/47/148 46/46/147 101/203/103
f 48/48/149 47/47/148 101/203/103
f 49/49/150 48/48/149 101/203/103
f 50/50/151 49/49/150 101/203/103
f 1/1/102 50/50/151 101/203/103
s 3
f 51/201/152 52/200/153 102/204/154
f 52/200/153 53/199/155 102/204/154
f 53/199/155 54/198/156 102/204/154
f 54/198/156 55/197/157 102/204/154
f 55/197/157 56/196/158 102/204/154
f 56/196/158 57/195/159 102/204/154
f 57/195/159 58/194/160 102/204/154
f 58/194/160 59/193/161 102/204/154
f 59/193/161 60/192/162 102/204/154
f 60/192/162 61/191/163 102/204/154
f 61/191/163 62/190/164 102/204/154
f 62/190/164 63/189/165 102/204/154
f 63/189/165 64/188/166 102/204/154
f 64/188/166 65/187/167 102/204/154
f 65/187/167 66/186/168 102/204/154
f 66/186/168 67/185/169 102/204/154
f 67/185/169 68/184/170 102/204/154
f 68/184/170 69/183/171 102/204/154
f 69/183/171 70/182/172 102/204/154
f 70/182/172 71/181/173 102/204/154
f 71/181/173 72/180/174 102/204/154
f 72/180/174 73/179/175 102/204/154
f 73/179/175 74/178/176 102/204/154
f 74/178/176 75/177/177 102/204/154
f 75/177/177 76/176/178 102/204/154
f 76/176/178 77/175/179 102/204/154
f 77/175/179 78/174/180 102/204/154
f 78/174/180 79/173/181 102/204/154
f 79/173/181 80/172/182 102/204/154
f 80/172/182 81/171/183 102/204/154
f 81/171/183 82/170/184 102/204/154
f 82/170/184 83/169/185 102/204/154
f 83/169/185 84/168/186 102/204/154
f 84/168/186 85/167/187 102/204/154
f 85/167/187 86/166/188 102/204/154
f 86/166/188 87/165/189 102/204/154
f 87/165/189 88/164/190 102/204/154
f 88/164/190 89/163/191 102/204/154
f 89/163/191 90/162/192 102/204/154
f 90/162/192 91/161/193 102/204/154
f 91/161/193 92/160/194 102/204/154
f 92/160/194 93/159/195 102/204/154
f 93/159/195 94/158/196 102/204/154
f 94/158/196 95/157/197 102/204/154
f 95/157/197 96/156/198 102/204/154
f 96/156/198 97/155/199 102/204/154
f 97/155/199 98/154/200 102/204/154
f 98/154/200 99/153/201 102/204/154
f 99/153/201 100/202/202 102/204/154
f 100/202/202 51/201/152 102/204/154
