# This file uses centimeters as units for non-parametric coordinates.

mtllib pillar.mtl
v -0.166022 0.308188 0.166022
v 0.166022 0.308188 0.166022
v -0.166022 13.808250 0.166022
v 0.166022 13.808250 0.166022
v -0.166022 13.808250 -0.166022
v 0.166022 13.808250 -0.166022
v -0.166022 0.308188 -0.166022
v 0.166022 0.308188 -0.166022
vt 0.488462 0.024373
vt 0.509119 0.024373
vt 0.488462 0.967949
vt 0.509119 0.967949
vt 0.467804 0.967949
vt 0.509119 0.988606
vt 0.488462 0.003716
vt 0.446366 0.024373
vt 0.529777 0.024373
vt 0.529777 0.967949
vt 0.467804 0.024373
vt 0.446367 0.967949
vt 0.509119 0.003716
vt 0.488462 0.988606
vn 0.000000 0.000000 1.000000
vn 0.000000 0.000000 1.000000
vn 0.000000 0.000000 1.000000
vn 0.000000 0.000000 1.000000
vn 0.000000 1.000000 0.000000
vn 0.000000 1.000000 0.000000
vn 0.000000 1.000000 0.000000
vn 0.000000 1.000000 0.000000
vn 0.000000 0.000000 -1.000000
vn 0.000000 0.000000 -1.000000
vn 0.000000 0.000000 -1.000000
vn 0.000000 0.000000 -1.000000
vn 0.000000 -1.000000 0.000000
vn 0.000000 -1.000000 0.000000
vn 0.000000 -1.000000 0.000000
vn 0.000000 -1.000000 0.000000
vn 1.000000 0.000000 0.000000
vn 1.000000 0.000000 0.000000
vn 1.000000 0.000000 0.000000
vn 1.000000 0.000000 0.000000
vn -1.000000 0.000000 0.000000
vn -1.000000 0.000000 0.000000
vn -1.000000 0.000000 0.000000
vn -1.000000 0.000000 0.000000
s off
g pCube1
usemtl initialShadingGroup
f 1/1/1 2/2/2 4/4/3 3/3/4
f 3/3/5 4/4/6 6/6/7 5/14/8
f 5/5/9 6/12/10 8/8/11 7/11/12
f 7/7/13 8/13/14 2/2/15 1/1/16
f 2/2/17 8/9/18 6/10/19 4/4/20
f 7/11/21 1/1/22 3/3/23 5/5/24
